<svg width="40" height="40" viewBox="0 0 40 40" fill="none" xmlns="http://www.w3.org/2000/svg">
<path fill-rule="evenodd" clip-rule="evenodd" d="M19.9402 22.78C19.9402 25.36 18.1202 26.78 15.5202 26.78H9.72363V13.1799H15.1402C17.7602 13.1799 19.5402 14.52 19.5402 16.98C19.5402 18.1001 19.0403 19.1 18.2402 19.7C19.1602 20.24 19.9402 21.28 19.9402 22.78ZM16.2199 17.1599C16.2199 16.44 15.7599 15.94 14.98 15.94H12.96V18.4199H14.98C15.7599 18.4199 16.2199 17.9199 16.2199 17.1599ZM16.62 22.6201C16.62 21.7601 16.08 21.1801 15.16 21.1801H12.96V24.0201H15.16C16.08 24.0201 16.62 23.4401 16.62 22.6201ZM20 40C31.04 40 40 31.04 40 20C40 8.95996 31.04 0 20 0C8.96003 0 0 8.95996 0 20C0 31.04 8.96003 40 20 40ZM19.9999 37.5401C10.3199 37.5401 2.45996 29.6801 2.45996 20.0001C2.45996 10.3201 10.3199 2.46002 19.9999 2.46002C29.68 2.46002 37.54 10.3201 37.54 20.0001C37.54 29.6801 29.68 37.5401 19.9999 37.5401ZM20.9805 13.1799H30.9404V16.1H27.6004V26.78H24.3204V16.1H20.9805V13.1799Z" fill="#FFFFFE"/>
</svg>
